<?xml version="1.0" encoding="utf-8"?><!DOCTYPE svg PUBLIC "-//W3C//DTD SVG 1.1//EN" "http://www.w3.org/Graphics/SVG/1.1/DTD/svg11.dtd"><svg version="1.1" id="Contours" xmlns="http://www.w3.org/2000/svg" xmlns:xlink="http://www.w3.org/1999/xlink" x="0px" y="0px" width="1280.166992px" height="1280.166992px" viewBox="0.000006 -0.000004 1280.166992 820.249634" enable-background="new 0 0 1280.166992 1280.166992" xml:space="preserve" stroke="black" fill="none" stroke-linecap='round' stroke-linejoin='round'><path class="selected"  fill="#000000" opacity="1.000000" stroke="none" 
 	d="
M670.152795 355.082584 C670.152795 369.415592 670.255945 383.249699 670.131372 397.081486 C669.868432 426.276798 669.447900 455.470646 669.171350 484.665714 C669.058801 496.554997 669.263940 508.447330 669.128625 520.336124 C668.879907 542.198551 668.610986 564.062077 668.118432 585.919987 C667.606225 608.646793 667.253015 631.391422 665.999109 654.082340 C665.173974 669.013981 665.515161 684.237370 660.094873 698.582706 C658.956201 701.596378 657.451379 704.625919 655.467065 707.135563 C650.665246 713.208439 646.695520 711.739933 643.047693 705.490910 C638.016687 696.872013 635.553064 687.367374 634.273950 677.658512 C633.046533 668.342106 632.497400 658.903385 632.220483 649.501652 C631.660302 630.480045 631.495263 611.447086 631.150171 592.419010 C630.829187 574.724064 630.516870 557.028629 630.142785 539.334660 C629.860193 525.971867 629.498925 512.610783 629.148950 499.249577 C628.833764 487.220768 628.323022 475.194767 628.183374 463.164127 C627.764917 427.137272 627.336999 391.109318 627.219018 355.080753 C627.164331 338.387150 627.668786 321.686161 628.225183 304.998722 C628.455407 298.093754 629.266382 291.184696 630.227380 284.335575 C630.907922 279.485477 626.989465 277.857975 624.645532 275.116276 C621.901574 271.906620 618.319543 269.207829 616.343591 265.605778 C614.407251 262.075871 611.899011 261.511234 608.829187 262.144413 C597.189050 264.544987 585.627038 267.326054 573.982324 269.702457 C564.261255 271.686283 554.466394 273.308781 544.702356 275.080997 C533.695398 277.078983 522.705835 279.183170 511.671350 281.015812 C504.291894 282.241398 496.847131 283.072819 489.431909 284.082767 C479.650903 285.414982 469.886132 286.884647 460.084192 288.038761 C452.553125 288.925480 444.972619 289.386967 437.418908 290.088871 C423.302758 291.400394 409.193017 292.780521 395.074487 294.065434 C390.222558 294.506962 385.353845 294.771183 380.490258 295.076847 C374.796655 295.434635 369.102685 295.797733 363.404748 296.073917 C342.320459 297.095768 321.234338 298.078739 300.149316 299.084721 C293.453515 299.404118 286.761926 299.836430 280.063195 300.063358 C268.203820 300.465153 256.342248 300.837894 244.478479 301.063175 C223.284936 301.465580 202.090051 301.916630 180.894128 302.014469 C169.700891 302.066166 158.503686 301.438725 147.309625 301.075443 C138.113397 300.777042 128.874170 300.876774 119.733941 299.982670 C102.861902 298.332157 85.826867 297.159733 69.277887 293.755436 C54.993310 290.817020 42.081567 283.472782 30.245019 274.683964 C21.406335 268.121098 13.472986 260.824650 7.665094 251.220463 C-1.375525 236.270451 -2.435645 221.061344 4.573632 205.149296 C10.221277 192.328251 19.273004 181.949467 28.229150 171.431156 C46.581414 149.877750 69.117700 133.388432 92.621728 118.162357 C112.260644 105.440128 132.225000 93.205448 152.274286 81.135319 C177.891809 65.713017 205.276269 54.132145 233.361902 43.937443 C253.461328 36.641544 273.857324 30.883732 294.862512 27.033512 C307.972619 24.630436 320.960046 21.557255 334.072107 19.165836 C340.374414 18.016300 346.839502 17.766056 353.227685 17.078922 C365.509729 15.757938 377.789392 14.414005 390.071069 13.089298 C390.565332 13.036015 391.070520 13.091496 391.570337 13.081303 C407.931909 12.749516 424.311914 11.791080 440.649438 12.273197 C454.623986 12.685490 468.548913 14.759586 482.497461 16.080448 C509.617822 18.648563 535.623559 25.842350 561.121179 35.094120 C588.227197 44.929386 614.359765 56.724064 637.200464 74.697330 C654.976648 88.685490 667.116723 106.739262 670.849450 129.071964 C673.153283 142.855228 672.467370 157.135990 673.184045 171.190311 C673.250818 172.499088 673.754236 173.785709 674.054895 175.082584 C675.153650 174.183048 676.310388 173.345158 677.341882 172.373966 C683.704309 166.383854 689.596643 159.789982 696.484338 154.486149 C707.088464 146.320499 718.149011 138.690495 729.416223 131.456913 C744.627282 121.691349 759.882165 111.904179 775.722375 103.229313 C801.204919 89.273808 826.868860 75.567997 853.058801 63.014164 C870.653650 54.580387 889.198571 48.078739 907.488000 41.160831 C921.188562 35.978642 935.059533 31.192631 949.032678 26.796696 C972.318689 19.471073 995.661096 12.208866 1019.797082 8.144779 C1035.608117 5.482426 1051.451623 2.452335 1067.403283 1.329105 C1086.858484 -0.040768 1106.465295 -0.303280 1125.962976 0.319523 C1140.477380 0.783085 1155.031457 2.784794 1169.368371 5.257633 C1184.123254 7.802616 1198.798181 11.172306 1213.218469 15.214298 C1236.351526 21.698490 1253.486535 36.409733 1264.674890 57.369205 C1271.976037 71.046879 1277.093713 85.693790 1279.254113 101.336552 C1283.102136 129.197208 1274.594812 153.020390 1257.323571 174.496769 C1245.464319 189.243534 1230.087976 199.346378 1214.041955 208.689518 C1197.138757 218.531681 1179.205041 226.024235 1160.394738 231.238163 C1145.993249 235.230045 1131.417077 238.609013 1116.868493 242.048283 C1103.939172 245.104801 1090.961389 247.965885 1077.966394 250.732304 C1067.370935 252.987797 1056.724817 255.007816 1046.089807 257.074589 C1032.201013 259.773747 1018.328943 262.572941 1004.396325 265.027226 C995.166955 266.652958 985.820886 267.605534 976.570276 269.123539 C967.563195 270.601566 958.638757 272.586857 949.627771 274.035954 C940.046960 275.576664 930.394738 276.667789 920.796106 278.104557 C910.305627 279.674747 899.857751 281.535770 889.358239 283.037846 C883.002527 283.947147 876.574548 284.337833 870.195520 285.099979 C859.573694 286.369022 848.970422 287.794804 838.348108 289.059208 C834.336877 289.536625 830.299524 289.872746 826.264367 290.057621 C817.239587 290.471134 808.209558 290.774845 799.180139 291.077396 C778.790490 291.760563 758.401208 292.453190 738.009607 293.069218 C724.649987 293.472904 711.285241 294.035526 697.925622 293.969608 C690.532068 293.933170 683.155603 292.534550 675.750573 292.149235 C669.597436 291.828983 669.069421 292.535160 669.168908 298.945377 C669.456750 317.491703 669.819482 336.036930 670.152795 355.082584 M627.652795 191.082584 C627.486169 190.652653 627.184900 190.226566 627.172326 189.792179 C626.814721 177.434513 626.923669 165.042484 625.976892 152.731327 C625.467798 146.111393 624.370752 139.006901 621.401574 133.217167 C615.368982 121.454227 604.687768 113.697453 593.548852 107.179813 C580.345849 99.454411 566.771203 92.298710 553.006067 85.620609 C542.498925 80.523136 531.582116 76.177677 520.604882 72.160831 C497.695031 63.777470 473.583398 61.235111 449.523889 59.285160 C435.728112 58.166996 421.761255 58.822819 407.882715 59.153568 C393.155603 59.504459 378.436364 60.315067 363.724572 61.122562 C355.657556 61.565372 347.558923 62.034977 339.569848 63.165836 C325.165735 65.204655 310.680932 67.071476 296.509668 70.255497 C279.105615 74.165897 261.864648 78.942020 244.777856 84.089848 C222.280725 90.867619 200.706201 100.018436 180.184350 111.547550 C166.534021 119.216251 152.508905 126.290287 139.297876 134.651615 C118.173578 148.021305 97.263452 161.740910 78.317529 178.261478 C65.480218 189.455387 54.205377 201.680912 46.605951 217.075687 C43.809625 222.740421 44.813714 227.731449 48.313043 231.635624 C57.800683 242.220768 69.890527 249.020695 82.982263 254.042667 C102.704858 261.608463 123.630243 262.391483 144.316064 263.948429 C161.819116 265.265751 179.406030 265.779179 196.963342 265.974918 C212.814966 266.151676 228.677636 265.452213 244.533777 265.070255 C255.727258 264.800663 266.918176 264.419743 278.109948 264.081486 C288.968896 263.753178 299.831079 263.502811 310.685449 263.061039 C324.908654 262.482182 339.127099 261.777836 353.344507 261.065922 C357.877099 260.838932 362.408349 260.503727 366.925500 260.065983 C380.206994 258.779118 393.477624 257.378910 406.759607 256.096806 C414.473657 255.352177 422.214685 254.873905 429.919824 254.053288 C441.376123 252.833073 452.801782 251.324467 464.259057 250.114201 C472.129846 249.282780 480.055749 248.952946 487.914819 248.036442 C500.740564 246.540714 513.526269 244.706303 526.339135 243.095524 C537.442285 241.699589 548.554834 240.375065 559.671716 239.092655 C574.472192 237.385258 589.277795 235.720585 604.088098 234.100956 C608.267480 233.643864 612.466333 233.222111 616.664697 233.115177 C623.050561 232.952580 629.443811 233.079411 635.833886 233.082401 C638.556909 233.083683 641.285913 233.187443 643.999841 233.030338 C645.068322 232.968510 646.102868 232.321415 647.152795 231.940739 C646.197046 231.198917 645.337793 230.252567 644.269738 229.748844 C637.876245 226.733585 633.319604 221.892216 631.807641 215.085392 C630.092004 207.361576 629.329614 199.426090 627.652795 191.082584 M1197.652795 169.082584 C1209.224450 163.253483 1219.465295 155.805302 1227.987390 145.868351 C1238.387658 133.741703 1243.017785 120.696964 1238.250451 104.681583 C1231.228967 81.094425 1217.535974 63.982975 1193.658044 56.095890 C1166.839441 47.237553 1139.374963 41.219120 1111.199792 39.238346 C1098.207849 38.324955 1085.071618 38.564457 1072.050134 39.235783 C1060.232629 39.845036 1048.418786 41.346928 1036.717981 43.185062 C1022.269494 45.454838 1007.657312 47.470402 993.619714 51.397343 C968.174768 58.515385 942.995446 66.643070 917.908777 74.963566 C898.018518 81.560612 878.484094 89.144596 859.806604 98.840824 C839.117273 109.581486 817.997522 119.503056 797.433557 130.471989 C779.227990 140.183048 761.421838 150.662296 743.645105 161.151066 C733.279870 167.266850 723.062707 173.707096 713.251672 180.667423 C704.504968 186.872562 696.138879 193.690983 688.122278 200.820622 C683.048669 205.333012 677.332605 209.324772 675.453576 216.959721 C674.130700 222.334965 670.072778 226.691166 664.551599 229.280643 C659.160608 231.809086 659.294946 232.015263 664.009424 235.480534 C665.071374 236.261112 666.340966 237.177921 666.776880 238.315006 C668.238122 242.126408 671.396203 242.717045 674.781579 243.080570 C677.975549 243.423527 681.175744 243.711735 684.365564 244.089359 C695.481164 245.405094 706.593713 247.867680 717.706750 247.863773 C746.095422 247.853825 774.490930 246.961674 802.868860 245.991215 C816.638391 245.520329 830.415368 244.457767 844.114953 242.979069 C858.335656 241.444035 872.486291 239.208317 886.632165 237.047306 C900.855798 234.874393 915.040735 232.446476 929.233361 230.074894 C946.994714 227.106937 964.738977 224.037174 982.504846 221.096867 C997.025720 218.693546 1011.631921 216.755741 1026.084070 214.001957 C1047.180627 209.982059 1068.191980 205.506413 1089.204431 201.058353 C1112.320764 196.164860 1135.493127 191.480595 1158.454431 185.932743 C1172.127649 182.628971 1185.182946 177.232609 1197.652795 169.082584 z"/><path class="selected"  fill="#000000" opacity="1.000000" stroke="none" 
 	d="
M467.402795 747.832584 C464.550683 745.415958 462.041894 743.123844 459.328759 741.106510 C451.649926 735.396793 444.928125 738.708927 438.294275 743.411076 C427.230249 751.252872 416.235315 759.206730 404.939172 766.703434 C390.221093 776.471256 373.286157 773.991764 360.200830 761.843449 C348.205713 750.707462 339.027063 737.322941 328.462610 725.052799 C319.633325 714.797794 309.187829 706.054752 295.579919 703.300114 C286.393518 701.440495 277.367761 704.276798 268.649438 707.965275 C252.628686 714.743107 236.474206 721.226872 220.213952 727.408390 C210.608361 731.060001 200.511255 733.239811 190.161035 732.002628 C178.678796 730.630070 169.130456 723.111759 168.167932 710.176701 C166.819543 692.056705 170.526025 674.601872 175.044397 657.213444 C176.069177 653.269840 178.511071 652.264713 181.398706 653.252995 C184.307458 654.248722 184.137903 656.725407 183.372033 659.987492 C181.385766 668.447330 180.314538 677.140568 179.216211 685.783634 C178.540490 691.101383 178.218225 696.497746 178.212182 701.859318 C178.201623 711.178776 183.190332 718.733341 189.909814 718.941227 C195.334436 719.108707 201.136194 719.018375 206.181176 717.305973 C221.780969 712.010807 237.213647 706.168888 252.486230 699.983707 C262.804406 695.804874 273.196496 691.700748 284.300500 691.252750 C298.849267 690.665836 311.936548 695.876530 322.812585 705.409122 C336.508325 717.413273 349.561914 730.146793 363.046594 742.396183 C368.088647 746.976383 373.436975 752.622013 380.855310 750.798893 C386.229211 749.478214 391.199731 745.890690 395.928430 742.690861 C408.325830 734.301456 419.740136 724.512638 434.530236 719.935612 C446.586389 716.204533 457.699426 717.250797 467.301660 725.026798 C474.985193 731.248966 481.564416 738.853336 488.506738 745.968327 C499.927026 757.672428 509.429956 771.490665 523.788293 779.957096 C530.483423 783.904850 538.043603 786.671574 545.531701 788.896305 C551.294824 790.608341 555.815637 786.476994 559.867395 782.819523 C568.497400 775.029362 577.400415 767.731998 588.009729 762.633732 C599.199609 757.256413 610.290551 756.844059 621.189599 762.730412 C631.029687 768.044987 640.205285 774.679020 650.285119 779.436344 C661.536096 784.746647 673.238855 789.415592 685.175988 792.877018 C700.399621 797.291447 716.082361 799.920841 732.125573 799.099674 C747.434900 798.316227 759.653161 792.658390 766.138025 777.858707 C770.216394 768.551334 773.694055 758.944767 778.346643 749.940250 C780.668664 745.446110 784.515710 741.343082 788.566491 738.223331 C796.386194 732.201115 805.076501 734.466862 812.801599 738.451603 C823.559900 744.001163 833.466028 751.239811 844.330652 756.538151 C863.577478 765.924015 884.067346 767.896427 904.832116 762.770573 C925.774743 757.600895 940.113000 743.867008 950.426111 725.381901 C953.542077 719.796940 956.991296 714.364567 960.685876 709.143986 C965.456384 702.403019 976.271447 699.540592 985.158777 702.647160 C997.813440 707.070744 1010.344690 711.846378 1022.971643 716.351383 C1026.178064 717.495304 1029.514489 718.333927 1032.847009 719.054997 C1043.550256 721.371159 1049.564416 715.163517 1055.262780 707.327213 C1061.860437 698.254459 1062.980432 687.477848 1066.198816 677.322697 C1069.517053 666.852360 1074.825036 657.275089 1086.319787 654.786808 C1093.095422 653.320255 1100.554895 654.580509 1107.658410 655.183659 C1114.612878 655.774113 1121.482507 657.676945 1128.430993 657.951481 C1140.410730 658.424747 1152.432336 657.812077 1164.415612 658.237247 C1168.317956 658.375675 1172.669153 659.539127 1175.902673 661.638859 C1180.723962 664.769596 1180.113733 668.153141 1175.023889 671.071842 C1168.830774 674.623356 1162.143762 676.516666 1155.021203 677.119205 C1149.282922 677.604557 1143.533532 679.181950 1137.858239 678.897404 C1129.957849 678.501286 1122.125451 676.793400 1114.256799 675.698429 C1109.987268 675.104557 1105.701623 674.626041 1101.425378 674.079655 C1098.284997 673.678410 1097.304040 674.888981 1097.040979 678.179142 C1096.038781 690.717106 1093.898767 703.167057 1088.028772 714.389957 C1082.315027 725.314030 1074.394616 734.883732 1063.510461 740.911564 C1054.242761 746.044010 1044.262658 745.731998 1034.155114 741.734806 C1020.258752 736.239445 1006.069421 731.484074 991.997278 726.434513 C986.328576 724.400211 983.087121 725.817326 981.130212 730.803776 C977.368005 740.390690 971.953576 748.983830 965.079797 756.649113 C957.081018 765.569035 948.204919 773.432072 937.211389 778.474186 C925.621789 783.789738 913.587610 787.236759 900.706018 788.190372 C873.065515 790.236515 848.798669 780.992130 825.697229 767.165470 C820.379846 763.982853 814.920739 761.028873 809.452234 758.109318 C805.989953 756.260807 803.989465 757.418156 803.141443 761.315372 C799.349695 778.739079 791.901330 794.357121 778.865564 806.696354 C769.933069 815.151920 758.919763 819.522404 746.463952 820.108463 C723.512292 821.188053 701.672815 815.925724 679.881189 809.473576 C660.305688 803.677555 643.084741 793.444767 625.716821 783.267033 C620.824121 780.399845 615.598779 777.455997 610.157068 776.329533 C603.033227 774.855045 597.552942 779.690250 592.596887 784.211247 C585.528100 790.660099 578.878198 797.573917 571.723291 803.921574 C561.333337 813.139103 549.139856 814.476505 536.563379 809.819523 C525.055810 805.558292 514.719140 799.123356 505.345910 790.952335 C493.557214 780.675724 484.281274 768.336735 474.712182 756.181095 C472.499841 753.370792 470.013208 750.776310 467.402795 747.832584 z"/><path class="selected"  fill="#000000" opacity="1.000000" stroke="none" 
 	d="
M381.152795 169.082584 C375.597986 169.749271 370.531762 170.339542 365.490686 171.097538 C352.485315 173.052921 339.506250 175.189335 326.486047 177.037479 C319.968591 177.962650 313.357019 178.221622 306.837304 179.134281 C299.494775 180.162113 292.225244 181.703739 284.891198 182.802738 C278.730188 183.726017 272.501733 184.198307 266.339807 185.116093 C258.057214 186.349674 249.800378 187.765568 241.549829 189.202702 C232.552087 190.769962 223.567529 192.414982 214.589319 194.091129 C201.452478 196.543583 188.348413 199.179203 175.187585 201.493656 C167.057763 202.923283 158.857019 203.968876 150.664636 205.000431 C149.600366 205.134403 148.395379 204.151005 147.255548 203.685246 C148.109155 202.763187 148.790674 201.497623 149.842309 200.970768 C164.435022 193.659672 179.338769 187.404179 195.719018 184.987614 C213.196862 182.409184 230.553186 179.015812 247.983972 176.107182 C258.766320 174.307926 269.591577 172.766788 280.392541 171.078068 C293.061059 169.097477 305.711572 166.997379 318.393396 165.107243 C330.346826 163.325565 342.309350 161.568974 354.307946 160.136784 C364.857812 158.877567 375.455224 157.987125 386.045984 157.106754 C399.283899 156.006229 412.522546 154.782291 425.786645 154.163029 C440.458703 153.477909 455.165551 153.029301 469.846277 153.239872 C477.607812 153.351200 485.419885 154.729130 493.045251 156.320438 C495.060022 156.740849 497.780298 160.034000 497.843835 162.080448 C497.938257 165.121647 495.132592 167.280827 491.619958 167.059940 C482.063134 166.459110 472.519128 165.334660 462.958642 165.193913 C452.442041 165.039066 441.912744 165.749638 431.388879 166.081364 C431.056054 166.091801 430.721460 166.064762 430.389550 166.085087 C414.143823 167.082157 397.898340 168.082523 381.152795 169.082584 z"/><path class="selected"  fill="#000000" opacity="1.000000" stroke="none" 
 	d="
M952.402795 160.332584 C963.476403 157.258976 974.251916 154.231815 985.135095 151.660404 C1000.793298 147.960636 1016.495813 144.430485 1032.243005 141.131107 C1046.081262 138.231754 1059.971277 135.542667 1073.905603 133.152653 C1083.785486 131.458012 1093.781823 130.450138 1103.716516 129.066105 C1107.785119 128.499271 1111.831018 127.208683 1115.882287 127.228764 C1120.273278 127.250431 1124.731408 128.132633 1129.009118 129.228886 C1130.609460 129.638859 1131.784021 131.709660 1133.152795 133.023197 C1131.823694 134.376347 1130.733239 136.316715 1129.120569 136.972477 C1124.271692 138.944584 1119.332727 141.110355 1114.223718 141.945744 C1101.489587 144.027775 1088.612512 145.216984 1075.846032 147.122196 C1045.126672 151.706608 1014.683923 157.529118 984.691980 165.852909 C962.637292 171.973881 940.213342 176.771305 917.931726 182.065067 C903.510217 185.491459 889.099328 188.992619 874.590783 192.013737 C860.269861 194.995731 845.841516 197.469242 831.441980 200.064091 C821.655725 201.827580 811.861535 203.590031 802.012903 204.924809 C800.202234 205.170170 798.113244 203.363224 796.152795 202.503605 C797.832605 201.363224 799.361291 199.693729 801.215539 199.164249 C819.850427 193.843449 838.475305 188.465092 857.232995 183.604740 C870.979944 180.042789 884.965905 177.412601 898.761560 174.025883 C910.210046 171.215336 921.509607 167.803471 932.927087 164.859440 C939.280847 163.221012 945.740686 161.994633 952.402795 160.332584 z"/></svg>